Oswald--400.ufo
<glyph name="parenright" format="1">
  <advance width="532"/>
  <unicode hex="0029"/>
  <outline>
    <contour>
      <point x="60" y="-397" type="line"/>
      <point x="453" y="-393"/>
      <point x="460" y="138"/>
      <point x="460" y="640" type="curve" smooth="yes"/>
      <point x="460" y="1142"/>
      <point x="453" y="1671"/>
      <point x="60" y="1673" type="curve"/>
      <point x="60" y="1527" type="line"/>
      <point x="254" y="1523"/>
      <point x="250" y="1065"/>
      <point x="250" y="640" type="curve" smooth="yes"/>
      <point x="250" y="219"/>
      <point x="253" y="-246"/>
      <point x="60" y="-250" type="curve"/>
    </contour>
  </outline>
</glyph>
<glyph name="at" format="1">
  <advance width="1852"/>
  <unicode hex="0040"/>
  <outline>
    <contour>
      <point x="962" y="-274" type="curve" smooth="yes"/>
      <point x="1096" y="-274"/>
      <point x="1243" y="-251"/>
      <point x="1392" y="-208" type="curve"/>
      <point x="1353" y="-49" type="line"/>
      <point x="1224" y="-86"/>
      <point x="1098" y="-105"/>
      <point x="982" y="-105" type="curve" smooth="yes"/>
      <point x="592" y="-105"/>
      <point x="320" y="115"/>
      <point x="320" y="586" type="curve"/>
      <point x="320" y="1138"/>
      <point x="605" y="1486"/>
      <point x="1032" y="1487" type="curve" smooth="yes"/>
      <point x="1437" y="1488"/>
      <point x="1607" y="1185"/>
      <point x="1603" y="841" type="curve" smooth="yes"/>
      <point x="1601" y="555"/>
      <point x="1469" y="324"/>
      <point x="1296" y="324" type="curve" smooth="yes"/>
      <point x="1231" y="324"/>
      <point x="1239" y="391"/>
      <point x="1249" y="468" type="curve" smooth="yes"/>
      <point x="1365" y="1220" type="line"/>
      <point x="1206" y="1220" type="line"/>
      <point x="1185" y="1185" type="line"/>
      <point x="1154" y="1210"/>
      <point x="1098" y="1238"/>
      <point x="1053" y="1238" type="curve" smooth="yes"/>
      <point x="765" y="1238"/>
      <point x="568" y="878"/>
      <point x="568" y="572" type="curve" smooth="yes"/>
      <point x="568" y="368"/>
      <point x="669" y="186"/>
      <point x="875" y="204" type="curve" smooth="yes"/>
      <point x="993" y="214"/>
      <point x="1048" y="305"/>
      <point x="1069" y="390" type="curve"/>
      <point x="1073" y="273"/>
      <point x="1157" y="201"/>
      <point x="1272" y="201" type="curve" smooth="yes"/>
      <point x="1569" y="201"/>
      <point x="1761" y="500"/>
      <point x="1763" y="863" type="curve" smooth="yes"/>
      <point x="1767" y="1271"/>
      <point x="1545" y="1658"/>
      <point x="1046" y="1658" type="curve" smooth="yes"/>
      <point x="507" y="1657"/>
      <point x="120" y="1315"/>
      <point x="120" y="577" type="curve" smooth="yes"/>
      <point x="120" y="-4"/>
      <point x="485" y="-274"/>
    </contour>
    <contour>
      <point x="918" y="373" type="curve"/>
      <point x="820" y="354"/>
      <point x="772" y="450"/>
      <point x="772" y="570" type="curve" smooth="yes"/>
      <point x="772" y="848"/>
      <point x="925" y="1076"/>
      <point x="1090" y="1076" type="curve" smooth="yes"/>
      <point x="1108" y="1076"/>
      <point x="1129" y="1072"/>
      <point x="1146" y="1065" type="curve" smooth="yes"/>
      <point x="1075" y="588" type="line"/>
      <point x="1049" y="447"/>
      <point x="982" y="383"/>
    </contour>
  </outline>
</glyph>
<glyph name="G" format="1">
  <advance width="1096"/>
  <unicode hex="0047"/>
  <outline>
    <contour>
      <point x="525" y="-20" type="curve" smooth="yes"/>
      <point x="689" y="-20"/>
      <point x="775" y="68"/>
      <point x="819" y="191" type="curve"/>
      <point x="841" y="0" type="line"/>
      <point x="988" y="0" type="line"/>
      <point x="988" y="822" type="line"/>
      <point x="568" y="822" type="line"/>
      <point x="568" y="658" type="line"/>
      <point x="778" y="658" type="line"/>
      <point x="778" y="542" type="line" smooth="yes"/>
      <point x="778" y="292"/>
      <point x="733" y="163"/>
      <point x="552" y="163" type="curve" smooth="yes"/>
      <point x="370" y="163"/>
      <point x="330" y="280"/>
      <point x="330" y="520" type="curve" smooth="yes"/>
      <point x="330" y="1134" type="line" smooth="yes"/>
      <point x="330" y="1340"/>
      <point x="342" y="1494"/>
      <point x="546" y="1494" type="curve" smooth="yes"/>
      <point x="733" y="1494"/>
      <point x="758" y="1394"/>
      <point x="758" y="1180" type="curve" smooth="yes"/>
      <point x="758" y="1128" type="line"/>
      <point x="975" y="1128" type="line"/>
      <point x="975" y="1189" type="line" smooth="yes"/>
      <point x="975" y="1518"/>
      <point x="854" y="1674"/>
      <point x="543" y="1674" type="curve" smooth="yes"/>
      <point x="192" y="1674"/>
      <point x="99" y="1463"/>
      <point x="99" y="1099" type="curve" smooth="yes"/>
      <point x="99" y="544" type="line" smooth="yes"/>
      <point x="99" y="186"/>
      <point x="213" y="-20"/>
    </contour>
  </outline>
</glyph>
<glyph name="Y" format="1">
  <advance width="986"/>
  <unicode hex="0059"/>
  <unicode hex="04AE"/>
  <outline>
    <contour>
      <point x="383" y="0" type="line"/>
      <point x="604" y="0" type="line"/>
      <point x="604" y="585" type="line"/>
      <point x="961" y="1658" type="line"/>
      <point x="743" y="1658" type="line"/>
      <point x="493" y="859" type="line"/>
      <point x="240" y="1658" type="line"/>
      <point x="25" y="1658" type="line"/>
      <point x="383" y="585" type="line"/>
    </contour>
  </outline>
</glyph>
<glyph name="g" format="1">
  <advance width="891"/>
  <unicode hex="0067"/>
  <outline>
    <contour>
      <point x="479" y="-367" type="curve" smooth="yes"/>
      <point x="715" y="-367"/>
      <point x="829" y="-287"/>
      <point x="829" y="-71" type="curve" smooth="yes"/>
      <point x="829" y="106"/>
      <point x="733" y="200"/>
      <point x="555" y="217" type="curve" smooth="yes"/>
      <point x="550" y="218"/>
      <point x="379" y="232"/>
      <point x="371" y="234" type="curve" smooth="yes"/>
      <point x="302" y="240"/>
      <point x="272" y="255"/>
      <point x="272" y="286" type="curve" smooth="yes"/>
      <point x="272" y="317"/>
      <point x="297" y="353"/>
      <point x="311" y="377" type="curve"/>
      <point x="315" y="376"/>
      <point x="397" y="362"/>
      <point x="423" y="362" type="curve" smooth="yes"/>
      <point x="672" y="362"/>
      <point x="751" y="531"/>
      <point x="751" y="772" type="curve" smooth="yes"/>
      <point x="751" y="839"/>
      <point x="734" y="942"/>
      <point x="714" y="990" type="curve"/>
      <point x="736" y="1008"/>
      <point x="863" y="1054"/>
      <point x="915" y="1065" type="curve"/>
      <point x="861" y="1207" type="line"/>
      <point x="827" y="1192" type="line"/>
      <point x="747" y="1155"/>
      <point x="681" y="1090"/>
      <point x="667" y="1070" type="curve"/>
      <point x="626" y="1155"/>
      <point x="550" y="1200"/>
      <point x="423" y="1200" type="curve" smooth="yes"/>
      <point x="204" y="1200"/>
      <point x="91" y="1055"/>
      <point x="91" y="779" type="curve" smooth="yes"/>
      <point x="91" y="590"/>
      <point x="138" y="494"/>
      <point x="228" y="425" type="curve"/>
      <point x="146" y="353"/>
      <point x="96" y="299"/>
      <point x="96" y="211" type="curve" smooth="yes"/>
      <point x="96" y="157"/>
      <point x="134" y="107"/>
      <point x="211" y="83" type="curve"/>
      <point x="123" y="36"/>
      <point x="40" y="-51"/>
      <point x="40" y="-183" type="curve" smooth="yes"/>
      <point x="40" y="-350"/>
      <point x="252" y="-367"/>
    </contour>
    <contour>
      <point x="476" y="-194" type="curve" smooth="yes"/>
      <point x="261" y="-194"/>
      <point x="226" y="-162"/>
      <point x="226" y="-95" type="curve" smooth="yes"/>
      <point x="226" y="-23"/>
      <point x="288" y="39"/>
      <point x="313" y="59" type="curve"/>
      <point x="500" y="44" type="line" smooth="yes"/>
      <point x="628" y="31"/>
      <point x="662" y="-6"/>
      <point x="662" y="-77" type="curve" smooth="yes"/>
      <point x="662" y="-159"/>
      <point x="602" y="-194"/>
    </contour>
    <contour>
      <point x="423" y="517" type="curve" smooth="yes"/>
      <point x="301" y="517"/>
      <point x="281" y="631"/>
      <point x="281" y="779" type="curve" smooth="yes"/>
      <point x="281" y="951"/>
      <point x="304" y="1048"/>
      <point x="426" y="1048" type="curve" smooth="yes"/>
      <point x="549" y="1048"/>
      <point x="565" y="944"/>
      <point x="565" y="779" type="curve" smooth="yes"/>
      <point x="565" y="613"/>
      <point x="548" y="517"/>
    </contour>
  </outline>
</glyph>
<glyph name="m" format="1">
  <advance width="1392"/>
  <unicode hex="006D"/>
  <outline>
    <contour>
      <point x="111" y="0" type="line"/>
      <point x="313" y="0" type="line"/>
      <point x="313" y="964" type="line"/>
      <point x="370" y="1023"/>
      <point x="438" y="1061"/>
      <point x="498" y="1061" type="curve" smooth="yes"/>
      <point x="559" y="1062"/>
      <point x="600" y="1030"/>
      <point x="600" y="916" type="curve" smooth="yes"/>
      <point x="600" y="0" type="line"/>
      <point x="801" y="0" type="line"/>
      <point x="801" y="929" type="line" smooth="yes"/>
      <point x="801" y="942"/>
      <point x="801" y="953"/>
      <point x="800" y="965" type="curve"/>
      <point x="856" y="1023"/>
      <point x="925" y="1061"/>
      <point x="985" y="1061" type="curve" smooth="yes"/>
      <point x="1046" y="1062"/>
      <point x="1087" y="1030"/>
      <point x="1087" y="916" type="curve" smooth="yes"/>
      <point x="1087" y="0" type="line"/>
      <point x="1289" y="0" type="line"/>
      <point x="1289" y="929" type="line" smooth="yes"/>
      <point x="1289" y="1127"/>
      <point x="1194" y="1205"/>
      <point x="1079" y="1205" type="curve" smooth="yes"/>
      <point x="971" y="1205"/>
      <point x="868" y="1157"/>
      <point x="784" y="1055" type="curve"/>
      <point x="753" y="1165"/>
      <point x="677" y="1205"/>
      <point x="592" y="1205" type="curve" smooth="yes"/>
      <point x="491" y="1205"/>
      <point x="393" y="1161"/>
      <point x="313" y="1072" type="curve"/>
      <point x="313" y="1184" type="line"/>
      <point x="111" y="1184" type="line"/>
    </contour>
  </outline>
</glyph>
<glyph name="q" format="1">
  <advance width="907"/>
  <unicode hex="0071"/>
  <outline>
    <contour>
      <point x="578" y="-390" type="line"/>
      <point x="796" y="-390" type="line"/>
      <point x="796" y="1184" type="line"/>
      <point x="578" y="1184" type="line"/>
      <point x="578" y="1108" type="line"/>
      <point x="527" y="1159"/>
      <point x="461" y="1200"/>
      <point x="381" y="1200" type="curve" smooth="yes"/>
      <point x="139" y="1200"/>
      <point x="91" y="965"/>
      <point x="91" y="695" type="curve" smooth="yes"/>
      <point x="91" y="465" type="line" smooth="yes"/>
      <point x="91" y="114"/>
      <point x="186" y="-18"/>
      <point x="388" y="-17" type="curve" smooth="yes"/>
      <point x="464" y="-17"/>
      <point x="527" y="21"/>
      <point x="578" y="76" type="curve"/>
    </contour>
    <contour>
      <point x="443" y="156" type="curve" smooth="yes"/>
      <point x="325" y="156"/>
      <point x="310" y="280"/>
      <point x="310" y="446" type="curve" smooth="yes"/>
      <point x="310" y="781" type="line" smooth="yes"/>
      <point x="310" y="915"/>
      <point x="335" y="1028"/>
      <point x="439" y="1028" type="curve" smooth="yes"/>
      <point x="491" y="1028"/>
      <point x="538" y="1004"/>
      <point x="578" y="976" type="curve"/>
      <point x="578" y="200" type="line"/>
      <point x="532" y="171"/>
      <point x="484" y="156"/>
    </contour>
  </outline>
</glyph>
<glyph name="t" format="1">
  <advance width="631"/>
  <unicode hex="0074"/>
  <outline>
    <contour>
      <point x="426" y="-17" type="curve" smooth="yes"/>
      <point x="481" y="-17"/>
      <point x="522" y="-12"/>
      <point x="578" y="-5" type="curve"/>
      <point x="578" y="157" type="line"/>
      <point x="551" y="153"/>
      <point x="518" y="152"/>
      <point x="497" y="152" type="curve" smooth="yes"/>
      <point x="411" y="152"/>
      <point x="389" y="189"/>
      <point x="389" y="281" type="curve" smooth="yes"/>
      <point x="389" y="1038" type="line"/>
      <point x="579" y="1038" type="line"/>
      <point x="579" y="1184" type="line"/>
      <point x="389" y="1184" type="line"/>
      <point x="389" y="1529" type="line"/>
      <point x="170" y="1529" type="line"/>
      <point x="170" y="1184" type="line"/>
      <point x="46" y="1184" type="line"/>
      <point x="46" y="1038" type="line"/>
      <point x="170" y="1038" type="line"/>
      <point x="170" y="266" type="line" smooth="yes"/>
      <point x="172" y="86"/>
      <point x="239" y="-17"/>
    </contour>
  </outline>
</glyph>
<glyph name="bar" format="1">
  <advance width="490"/>
  <unicode hex="007C"/>
  <outline>
    <contour>
      <point x="142" y="-304" type="line"/>
      <point x="346" y="-304" type="line"/>
      <point x="347" y="1659" type="line"/>
      <point x="144" y="1659" type="line"/>
    </contour>
  </outline>
</glyph>
<glyph name="cent" format="1">
  <advance width="794"/>
  <unicode hex="00A2"/>
  <outline>
    <contour>
      <point x="365" y="-162" type="line"/>
      <point x="435" y="-162" type="line"/>
      <point x="435" y="-17" type="line"/>
      <point x="688" y="-16"/>
      <point x="757" y="125"/>
      <point x="757" y="365" type="curve" smooth="yes"/>
      <point x="757" y="447" type="line"/>
      <point x="559" y="447" type="line"/>
      <point x="559" y="351" type="line" smooth="yes"/>
      <point x="559" y="230"/>
      <point x="547" y="145"/>
      <point x="438" y="145" type="curve" smooth="yes"/>
      <point x="339" y="145"/>
      <point x="308" y="197"/>
      <point x="308" y="400" type="curve" smooth="yes"/>
      <point x="308" y="773" type="line" smooth="yes"/>
      <point x="308" y="972"/>
      <point x="327" y="1039"/>
      <point x="437" y="1039" type="curve" smooth="yes"/>
      <point x="532" y="1039"/>
      <point x="559" y="983"/>
      <point x="559" y="829" type="curve" smooth="yes"/>
      <point x="559" y="757" type="line"/>
      <point x="757" y="757" type="line"/>
      <point x="757" y="828" type="line" smooth="yes"/>
      <point x="757" y="1071"/>
      <point x="692" y="1199"/>
      <point x="437" y="1200" type="curve"/>
      <point x="437" y="1343" type="line"/>
      <point x="367" y="1343" type="line"/>
      <point x="367" y="1197" type="line"/>
      <point x="139" y="1170"/>
      <point x="89" y="1000"/>
      <point x="89" y="728" type="curve" smooth="yes"/>
      <point x="89" y="454" type="line" smooth="yes"/>
      <point x="89" y="194"/>
      <point x="134" y="14"/>
      <point x="365" y="-13" type="curve"/>
    </contour>
  </outline>
</glyph>
<glyph name="guillemotright" format="1">
  <advance width="985"/>
  <unicode hex="00BB"/>
  <outline>
    <contour>
      <point x="117" y="83" type="line"/>
      <point x="472" y="550" type="line"/>
      <point x="472" y="658" type="line"/>
      <point x="117" y="1125" type="line"/>
      <point x="117" y="850" type="line"/>
      <point x="304" y="605" type="line"/>
      <point x="117" y="357" type="line"/>
    </contour>
    <contour>
      <point x="516" y="83" type="line"/>
      <point x="869" y="550" type="line"/>
      <point x="869" y="658" type="line"/>
      <point x="516" y="1125" type="line"/>
      <point x="516" y="850" type="line"/>
      <point x="702" y="604" type="line"/>
      <point x="516" y="357" type="line"/>
    </contour>
  </outline>
</glyph>
<glyph name="threequarters" format="1">
  <advance width="1649"/>
  <unicode hex="00BE"/>
  <outline>
    <contour>
      <point x="330" y="829" type="curve" smooth="yes"/>
      <point x="483" y="829"/>
      <point x="566" y="920"/>
      <point x="566" y="1070" type="curve" smooth="yes"/>
      <point x="566" y="1193"/>
      <point x="493" y="1246"/>
      <point x="392" y="1254" type="curve"/>
      <point x="494" y="1259"/>
      <point x="565" y="1318"/>
      <point x="565" y="1438" type="curve" smooth="yes"/>
      <point x="565" y="1585"/>
      <point x="484" y="1676"/>
      <point x="332" y="1676" type="curve" smooth="yes"/>
      <point x="179" y="1676"/>
      <point x="96" y="1587"/>
      <point x="96" y="1440" type="curve"/>
      <point x="262" y="1440" type="line"/>
      <point x="262" y="1505"/>
      <point x="267" y="1563"/>
      <point x="332" y="1563" type="curve" smooth="yes"/>
      <point x="395" y="1563"/>
      <point x="398" y="1504"/>
      <point x="398" y="1438" type="curve" smooth="yes"/>
      <point x="398" y="1343"/>
      <point x="369" y="1310"/>
      <point x="279" y="1310" type="curve"/>
      <point x="279" y="1198" type="line"/>
      <point x="368" y="1198"/>
      <point x="399" y="1161"/>
      <point x="399" y="1069" type="curve" smooth="yes"/>
      <point x="399" y="999"/>
      <point x="393" y="941"/>
      <point x="330" y="941" type="curve" smooth="yes"/>
      <point x="266" y="941"/>
      <point x="262" y="1000"/>
      <point x="262" y="1064" type="curve"/>
      <point x="96" y="1064" type="line"/>
      <point x="96" y="917"/>
      <point x="179" y="829"/>
    </contour>
    <contour>
      <point x="1312" y="0" type="line"/>
      <point x="1478" y="0" type="line"/>
      <point x="1478" y="244" type="line"/>
      <point x="1598" y="244" type="line"/>
      <point x="1598" y="357" type="line"/>
      <point x="1478" y="357" type="line"/>
      <point x="1478" y="912" type="line"/>
      <point x="1328" y="912" type="line"/>
      <point x="1013" y="357" type="line"/>
      <point x="1013" y="244" type="line"/>
      <point x="1312" y="244" type="line"/>
    </contour>
    <contour>
      <point x="477" y="0" type="line"/>
      <point x="660" y="0" type="line"/>
      <point x="1201" y="1658" type="line"/>
      <point x="1017" y="1658" type="line"/>
    </contour>
    <contour>
      <point x="1146" y="357" type="line"/>
      <point x="1312" y="681" type="line"/>
      <point x="1312" y="357" type="line"/>
    </contour>
  </outline>
</glyph>
<glyph name="questiondown" format="1">
  <advance width="1041"/>
  <unicode hex="00BF"/>
  <outline>
    <contour>
      <point x="550" y="-393" type="curve" smooth="yes"/>
      <point x="812" y="-393"/>
      <point x="981" y="-226"/>
      <point x="928" y="43" type="curve" smooth="yes"/>
      <point x="915" y="113" type="line"/>
      <point x="711" y="75" type="line"/>
      <point x="722" y="1" type="line" smooth="yes"/>
      <point x="741" y="-118"/>
      <point x="680" y="-201"/>
      <point x="552" y="-201" type="curve" smooth="yes"/>
      <point x="431" y="-201"/>
      <point x="350" y="-106"/>
      <point x="350" y="28" type="curve" smooth="yes"/>
      <point x="350" y="266"/>
      <point x="524" y="447"/>
      <point x="717" y="617" type="curve"/>
      <point x="717" y="872" type="line"/>
      <point x="522" y="872" type="line"/>
      <point x="522" y="672" type="line"/>
      <point x="318" y="471"/>
      <point x="135" y="311"/>
      <point x="135" y="34" type="curve" smooth="yes"/>
      <point x="135" y="-238"/>
      <point x="289" y="-393"/>
    </contour>
    <contour>
      <point x="507" y="1062" type="line"/>
      <point x="727" y="1062" type="line"/>
      <point x="727" y="1287" type="line"/>
      <point x="507" y="1287" type="line"/>
    </contour>
  </outline>
</glyph>
<glyph name="Thorn" format="1">
  <advance width="1031"/>
  <unicode hex="00DE"/>
  <outline>
    <contour>
      <point x="130" y="0" type="line"/>
      <point x="361" y="0" type="line"/>
      <point x="361" y="478" type="line"/>
      <point x="562" y="478" type="line" smooth="yes"/>
      <point x="858" y="478"/>
      <point x="995" y="649"/>
      <point x="995" y="960" type="curve" smooth="yes"/>
      <point x="995" y="1252"/>
      <point x="876" y="1441"/>
      <point x="600" y="1441" type="curve" smooth="yes"/>
      <point x="361" y="1441" type="line"/>
      <point x="361" y="1658" type="line"/>
      <point x="130" y="1658" type="line"/>
    </contour>
    <contour>
      <point x="361" y="664" type="line"/>
      <point x="361" y="1250" type="line"/>
      <point x="531" y="1250" type="line" smooth="yes"/>
      <point x="703" y="1250"/>
      <point x="770" y="1174"/>
      <point x="770" y="961" type="curve" smooth="yes"/>
      <point x="770" y="729"/>
      <point x="686" y="664"/>
      <point x="504" y="664" type="curve" smooth="yes"/>
    </contour>
  </outline>
</glyph>
<glyph name="eth" format="1">
  <advance width="965"/>
  <unicode hex="00F0"/>
  <outline>
    <contour>
      <point x="851" y="486" type="curve" smooth="yes"/>
      <point x="851" y="773" type="line" smooth="yes"/>
      <point x="851" y="998"/>
      <point x="783" y="1269"/>
      <point x="723" y="1394" type="curve"/>
      <point x="906" y="1443" type="line"/>
      <point x="906" y="1555" type="line"/>
      <point x="667" y="1485" type="line"/>
      <point x="577" y="1616"/>
      <point x="432" y="1675"/>
      <point x="168" y="1677" type="curve"/>
      <point x="158" y="1534" type="line"/>
      <point x="352" y="1531"/>
      <point x="439" y="1495"/>
      <point x="496" y="1429" type="curve"/>
      <point x="311" y="1377" type="line"/>
      <point x="311" y="1265" type="line"/>
      <point x="555" y="1341" type="line"/>
      <point x="593" y="1282"/>
      <point x="617" y="1174"/>
      <point x="627" y="1066" type="curve"/>
      <point x="587" y="1102"/>
      <point x="523" y="1140"/>
      <point x="428" y="1140" type="curve" smooth="yes"/>
      <point x="157" y="1140"/>
      <point x="106" y="898"/>
      <point x="106" y="598" type="curve" smooth="yes"/>
      <point x="106" y="460" type="line" smooth="yes"/>
      <point x="106" y="164"/>
      <point x="162" y="-18"/>
      <point x="464" y="-18" type="curve" smooth="yes"/>
      <point x="750" y="-18"/>
      <point x="851" y="181"/>
    </contour>
    <contour>
      <point x="325" y="582" type="curve" smooth="yes"/>
      <point x="325" y="840"/>
      <point x="360" y="961"/>
      <point x="483" y="961" type="curve" smooth="yes"/>
      <point x="570" y="961"/>
      <point x="612" y="910"/>
      <point x="630" y="892" type="curve"/>
      <point x="631" y="890"/>
      <point x="633" y="463"/>
      <point x="633" y="449" type="curve" smooth="yes"/>
      <point x="633" y="273"/>
      <point x="617" y="155"/>
      <point x="471" y="155" type="curve" smooth="yes"/>
      <point x="294" y="155"/>
      <point x="325" y="370"/>
    </contour>
  </outline>
</glyph>
<glyph name="divide" format="1">
  <advance width="709"/>
  <unicode hex="00F7"/>
  <outline>
    <contour>
      <point x="266" y="353" type="line"/>
      <point x="440" y="353" type="line"/>
      <point x="440" y="580" type="line"/>
      <point x="266" y="580" type="line"/>
    </contour>
    <contour>
      <point x="38" y="762" type="line"/>
      <point x="671" y="762" type="line"/>
      <point x="671" y="921" type="line"/>
      <point x="38" y="921" type="line"/>
    </contour>
    <contour>
      <point x="266" y="1079" type="line"/>
      <point x="440" y="1079" type="line"/>
      <point x="440" y="1306" type="line"/>
      <point x="266" y="1306" type="line"/>
    </contour>
  </outline>
</glyph>
<glyph name="dotlessi" format="1">
  <advance width="459"/>
  <unicode hex="0131"/>
  <outline>
    <contour>
      <point x="125" y="0" type="line"/>
      <point x="344" y="0" type="line"/>
      <point x="344" y="1184" type="line"/>
      <point x="125" y="1184" type="line"/>
    </contour>
  </outline>
</glyph>
<glyph name="florin" format="1">
  <advance width="778"/>
  <unicode hex="0192"/>
  <outline>
    <contour>
      <point x="138" y="-244" type="curve" smooth="yes"/>
      <point x="359" y="-244"/>
      <point x="408" y="-116"/>
      <point x="431" y="99" type="curve" smooth="yes"/>
      <point x="529" y="1021" type="line"/>
      <point x="703" y="1021" type="line"/>
      <point x="703" y="1184" type="line"/>
      <point x="546" y="1184" type="line"/>
      <point x="556" y="1283" type="line" smooth="yes"/>
      <point x="566" y="1374"/>
      <point x="587" y="1435"/>
      <point x="673" y="1435" type="curve" smooth="yes"/>
      <point x="696" y="1435"/>
      <point x="727" y="1428"/>
      <point x="751" y="1425" type="curve"/>
      <point x="768" y="1589" type="line"/>
      <point x="712" y="1596"/>
      <point x="683" y="1600"/>
      <point x="628" y="1600" type="curve" smooth="yes"/>
      <point x="407" y="1600"/>
      <point x="356" y="1471"/>
      <point x="335" y="1257" type="curve" smooth="yes"/>
      <point x="327" y="1184" type="line"/>
      <point x="175" y="1184" type="line"/>
      <point x="175" y="1021" type="line"/>
      <point x="310" y="1021" type="line"/>
      <point x="210" y="74" type="line" smooth="yes"/>
      <point x="199" y="-17"/>
      <point x="180" y="-79"/>
      <point x="94" y="-79" type="curve" smooth="yes"/>
      <point x="72" y="-79"/>
      <point x="37" y="-73"/>
      <point x="14" y="-69" type="curve"/>
      <point x="-2" y="-232" type="line"/>
      <point x="53" y="-239"/>
      <point x="83" y="-244"/>
    </contour>
  </outline>
</glyph>
<glyph name="hungarumlaut" format="1">
  <advance width="584"/>
  <unicode hex="02DD"/>
  <outline>
    <contour>
      <point x="194" y="1311" type="line"/>
      <point x="305" y="1311" type="line"/>
      <point x="454" y="1661" type="line"/>
      <point x="275" y="1661" type="line"/>
    </contour>
    <contour>
      <point x="453" y="1311" type="line"/>
      <point x="565" y="1311" type="line"/>
      <point x="793" y="1661" type="line"/>
      <point x="571" y="1661" type="line"/>
    </contour>
  </outline>
</glyph>
<glyph name="uni030C" format="1">
  <advance width="0"/>
  <unicode hex="030C"/>
  <outline>
    <contour>
      <point x="-25" y="1305" type="line"/>
      <point x="190" y="1305" type="line"/>
      <point x="368" y="1658" type="line"/>
      <point x="201" y="1658" type="line"/>
      <point x="83" y="1419" type="line"/>
      <point x="-36" y="1658" type="line"/>
      <point x="-202" y="1658" type="line"/>
    </contour>
  </outline>
</glyph>
<glyph name="afii10057" format="1">
  <advance width="617"/>
  <unicode hex="0408"/>
  <outline>
    <contour>
      <point x="14" y="-39" type="line"/>
      <point x="124" y="-39" type="line" smooth="yes"/>
      <point x="411" y="-39"/>
      <point x="485" y="91"/>
      <point x="486" y="374" type="curve"/>
      <point x="486" y="1658" type="line"/>
      <point x="255" y="1658" type="line"/>
      <point x="255" y="378" type="line" smooth="yes"/>
      <point x="255" y="170"/>
      <point x="215" y="127"/>
      <point x="14" y="127" type="curve"/>
    </contour>
  </outline>
</glyph>
<glyph name="afii10058" format="1">
  <advance width="1713"/>
  <unicode hex="0409"/>
  <outline>
    <contour>
      <point x="28" y="-1" type="line"/>
      <point x="74" y="-3" type="line" smooth="yes"/>
      <point x="378" y="-13"/>
      <point x="479" y="225"/>
      <point x="508" y="731" type="curve" smooth="yes"/>
      <point x="552" y="1487" type="line"/>
      <point x="850" y="1487" type="line"/>
      <point x="850" y="0" type="line"/>
      <point x="1125" y="0" type="line" smooth="yes"/>
      <point x="1482" y="0"/>
      <point x="1645" y="144"/>
      <point x="1645" y="486" type="curve" smooth="yes"/>
      <point x="1645" y="866"/>
      <point x="1472" y="968"/>
      <point x="1113" y="968" type="curve" smooth="yes"/>
      <point x="1081" y="968" type="line"/>
      <point x="1081" y="1658" type="line"/>
      <point x="349" y="1658" type="line"/>
      <point x="296" y="731" type="line" smooth="yes"/>
      <point x="266" y="273"/>
      <point x="199" y="159"/>
      <point x="28" y="172" type="curve"/>
    </contour>
    <contour>
      <point x="1081" y="166" type="line"/>
      <point x="1081" y="801" type="line"/>
      <point x="1121" y="801" type="line" smooth="yes"/>
      <point x="1353" y="801"/>
      <point x="1427" y="713"/>
      <point x="1427" y="488" type="curve" smooth="yes"/>
      <point x="1427" y="216"/>
      <point x="1331" y="166"/>
      <point x="1125" y="166" type="curve" smooth="yes"/>
    </contour>
  </outline>
</glyph>
<glyph name="afii10017" format="1">
  <advance width="1005"/>
  <unicode hex="0410"/>
  <outline>
    <contour>
      <point x="37" y="0" type="line"/>
      <point x="256" y="0" type="line"/>
      <point x="334" y="418" type="line"/>
      <point x="672" y="418" type="line"/>
      <point x="748" y="0" type="line"/>
      <point x="968" y="0" type="line"/>
      <point x="613" y="1658" type="line"/>
      <point x="391" y="1658" type="line"/>
    </contour>
    <contour>
      <point x="365" y="583" type="line"/>
      <point x="503" y="1332" type="line"/>
      <point x="642" y="583" type="line"/>
    </contour>
  </outline>
</glyph>
<glyph name="afii10093" format="1">
  <advance width="1275"/>
  <unicode hex="044B"/>
  <outline>
    <contour>
      <point x="111" y="0" type="line"/>
      <point x="343" y="0" type="line" smooth="yes"/>
      <point x="689" y="0"/>
      <point x="811" y="90"/>
      <point x="811" y="349" type="curve" smooth="yes"/>
      <point x="811" y="625"/>
      <point x="689" y="691"/>
      <point x="365" y="694" type="curve" smooth="yes"/>
      <point x="357" y="694"/>
      <point x="338" y="694"/>
      <point x="330" y="694" type="curve"/>
      <point x="330" y="1184" type="line"/>
      <point x="111" y="1184" type="line"/>
    </contour>
    <contour>
      <point x="330" y="129" type="line"/>
      <point x="330" y="565" type="line"/>
      <point x="333" y="565"/>
      <point x="349" y="565"/>
      <point x="352" y="565" type="curve" smooth="yes"/>
      <point x="563" y="563"/>
      <point x="614" y="507"/>
      <point x="614" y="350" type="curve" smooth="yes"/>
      <point x="614" y="172"/>
      <point x="549" y="129"/>
      <point x="343" y="129" type="curve" smooth="yes"/>
    </contour>
    <contour>
      <point x="946" y="0" type="line"/>
      <point x="1165" y="0" type="line"/>
      <point x="1165" y="1184" type="line"/>
      <point x="946" y="1184" type="line"/>
    </contour>
  </outline>
</glyph>
<glyph name="afii10103" format="1">
  <advance width="474"/>
  <unicode hex="0456"/>
  <outline>
    <contour>
      <point x="127" y="0" type="line"/>
      <point x="346" y="0" type="line"/>
      <point x="346" y="1184" type="line"/>
      <point x="127" y="1184" type="line"/>
    </contour>
    <contour>
      <point x="128" y="1337" type="line"/>
      <point x="350" y="1337" type="line"/>
      <point x="350" y="1566" type="line"/>
      <point x="128" y="1566" type="line"/>
    </contour>
  </outline>
</glyph>
<glyph name="endash" format="1">
  <advance width="1012"/>
  <unicode hex="2013"/>
  <outline>
    <contour>
      <point x="17" y="417" type="line"/>
      <point x="998" y="417" type="line"/>
      <point x="998" y="584" type="line"/>
      <point x="17" y="584" type="line"/>
    </contour>
  </outline>
</glyph>
<glyph name="quotedblbase" format="1">
  <advance width="941"/>
  <unicode hex="201E"/>
  <outline>
    <contour>
      <point x="232" y="-268" type="line"/>
      <point x="383" y="-262"/>
      <point x="435" y="-137"/>
      <point x="435" y="75" type="curve" smooth="yes"/>
      <point x="435" y="273" type="line"/>
      <point x="195" y="273" type="line"/>
      <point x="195" y="43" type="line"/>
      <point x="304" y="43" type="line"/>
      <point x="304" y="-113"/>
      <point x="278" y="-180"/>
      <point x="194" y="-187" type="curve"/>
    </contour>
    <contour>
      <point x="650" y="-268" type="line"/>
      <point x="802" y="-262"/>
      <point x="853" y="-137"/>
      <point x="853" y="75" type="curve" smooth="yes"/>
      <point x="853" y="273" type="line"/>
      <point x="614" y="273" type="line"/>
      <point x="614" y="43" type="line"/>
      <point x="722" y="43" type="line"/>
      <point x="722" y="-113"/>
      <point x="696" y="-180"/>
      <point x="612" y="-187" type="curve"/>
    </contour>
  </outline>
</glyph>
<glyph name="ellipsis" format="1">
  <advance width="1133"/>
  <unicode hex="2026"/>
  <outline>
    <contour>
      <point x="78" y="0" type="line"/>
      <point x="299" y="0" type="line"/>
      <point x="299" y="243" type="line"/>
      <point x="78" y="243" type="line"/>
    </contour>
    <contour>
      <point x="458" y="0" type="line"/>
      <point x="679" y="0" type="line"/>
      <point x="679" y="243" type="line"/>
      <point x="458" y="243" type="line"/>
    </contour>
    <contour>
      <point x="838" y="0" type="line"/>
      <point x="1059" y="0" type="line"/>
      <point x="1059" y="243" type="line"/>
      <point x="838" y="243" type="line"/>
    </contour>
  </outline>
</glyph>
<glyph name="uni2074" format="1">
  <advance width="713"/>
  <unicode hex="2074"/>
  <outline>
    <contour>
      <point x="387" y="565" type="line"/>
      <point x="553" y="565" type="line"/>
      <point x="553" y="863" type="line"/>
      <point x="672" y="863" type="line"/>
      <point x="672" y="976" type="line"/>
      <point x="553" y="976" type="line"/>
      <point x="553" y="1658" type="line"/>
      <point x="403" y="1658" type="line"/>
      <point x="61" y="976" type="line"/>
      <point x="61" y="863" type="line"/>
      <point x="387" y="863" type="line"/>
    </contour>
    <contour>
      <point x="199" y="976" type="line"/>
      <point x="387" y="1381" type="line"/>
      <point x="387" y="976" type="line"/>
    </contour>
  </outline>
</glyph>
<glyph name="infinity" format="1">
  <advance width="1295"/>
  <unicode hex="221E"/>
  <outline>
    <contour>
      <point x="343" y="247" type="curve" smooth="yes"/>
      <point x="488" y="247"/>
      <point x="580" y="322"/>
      <point x="664" y="417" type="curve"/>
      <point x="742" y="328"/>
      <point x="823" y="259"/>
      <point x="960" y="262" type="curve"/>
      <point x="1146" y="268"/>
      <point x="1251" y="383"/>
      <point x="1251" y="567" type="curve" smooth="yes"/>
      <point x="1251" y="752"/>
      <point x="1146" y="867"/>
      <point x="960" y="872" type="curve"/>
      <point x="823" y="876"/>
      <point x="742" y="807"/>
      <point x="664" y="718" type="curve"/>
      <point x="580" y="813"/>
      <point x="488" y="887"/>
      <point x="343" y="887" type="curve" smooth="yes"/>
      <point x="142" y="887"/>
      <point x="44" y="752"/>
      <point x="44" y="567" type="curve" smooth="yes"/>
      <point x="44" y="383"/>
      <point x="142" y="247"/>
    </contour>
    <contour>
      <point x="338" y="434" type="curve" smooth="yes"/>
      <point x="262" y="430"/>
      <point x="207" y="488"/>
      <point x="207" y="567" type="curve" smooth="yes"/>
      <point x="207" y="646"/>
      <point x="262" y="705"/>
      <point x="338" y="700" type="curve" smooth="yes"/>
      <point x="391" y="698"/>
      <point x="447" y="668"/>
      <point x="535" y="567" type="curve"/>
      <point x="447" y="466"/>
      <point x="391" y="437"/>
    </contour>
    <contour>
      <point x="969" y="451" type="curve" smooth="yes"/>
      <point x="926" y="452"/>
      <point x="885" y="472"/>
      <point x="799" y="567" type="curve"/>
      <point x="885" y="663"/>
      <point x="926" y="682"/>
      <point x="969" y="683" type="curve" smooth="yes"/>
      <point x="1035" y="684"/>
      <point x="1090" y="641"/>
      <point x="1090" y="567" type="curve" smooth="yes"/>
      <point x="1090" y="494"/>
      <point x="1035" y="450"/>
    </contour>
  </outline>
</glyph>
